<?xml version="1.0" encoding="UTF-8"?>
<svg id="Layer_1" data-name="Layer 1" xmlns="http://www.w3.org/2000/svg" viewBox="0 0 160 43.74">
  <defs>
    <style>
      .cls-1 {
        fill: #20443e;
      }
    </style>
  </defs>
  <path class="cls-1" d="M142.23,28.5c-.47-2.34-1.44-5.23-4.09-5.21l-4.05.03v11.95c.01.8.23,1.87.73,2.43.58.64,1.58.61,2.36.79l.6.13c.17.04-.02.75-.27.75h-13.07c-.36,0-.68-.13-.68-.32,0-1.13,1.69-.19,2.93-1.26.53-.45.77-1.47.77-2.27V9.2c0-.83-.21-1.79-.77-2.29-1.39-1.23-3.28.02-2.85-1.57.04-.16.51-.05.75-.05l13.91.03c4.24,0,10.12.98,11.85,5.43,1.52,3.91-.13,8.24-3.73,10.35-1.85,1.08-3.81,1.62-5.87,1.91,1.51.24,2.84.52,4.24.95,1.85.81,3.38,2.24,3.88,4.29l1.93,7.95c.2.83.77,1.61,1.5,1.79,1.93.47,2.38-2.01,3.12-.84.13.21-1.8,2.93-5.43,2.98-3.26.04-5.66-1.14-6.33-4.53l-1.42-7.1ZM143.53,17.82c.96-3.96.77-10.86-4.6-11.49-1.29-.15-2.71-.38-3.89.39-.63.42-.92,1.62-.93,2.44l-.03,13.05c3.72.25,8.35.15,9.45-4.39Z"/>
  <path class="cls-1" d="M112.88,38.22l2.86.38-.09.82h-15.86c-.36,0-.72,0-.75-.21-.22-1.35,1.66-.21,3.84-1.34.74-.39,1.22-1.56,1.22-2.51l.02-28.95c-3.42-.26-6.41.27-7.97,3.5-.91,1.88-1.37,3.85-1.77,5.94-.04.21-.15.54-.27.64-.15.13-.63.03-.88-.07.17-3.7.02-7.31-.23-11.12l2.49.03h23.96s2.43-.01,2.43-.01c-.28,3.83-.34,7.4-.23,11.05-.04.25-.97.24-1.02-.02-.43-2.13-.9-4.33-1.79-6.26-1.62-3.48-4.6-3.94-8.12-3.68v26.85c0,1.83-.02,4.67,2.18,4.96Z"/>
  <path class="cls-1" d="M12.8,29.9c1.33,5.64,5.25,10.38,11.59,8.9,1.86-.43,3.36-1.24,4.66-2.63,2.6-2.79,2.36-4.78,3-8.52.15-.21.85-.22,1.06-.03l.18,11.46c0,.24-.47.46-.68.43-.85-.13-.14-1.68-1.16-2.73-.8-.83-3.42,2.09-6.67,2.9s-6.39.54-9.48-.42c-4.4-1.36-7.81-4.59-9.39-8.97-3.28-9.09-.59-21.17,9.45-24.77,3.07-1.1,6.35-1.26,9.49-.53,2.1.49,3.8,1.73,5.52,2.92.44.31,1.27.15,1.41-.42l.49-2.05c.06-.23.77-.26,1.02-.14l-.19,11.21c0,.31-1,.25-1.05-.03-.71-4.03-.72-5.58-3.55-8.34-1.42-1.38-3.17-2.09-5.15-2.4-5.69-.91-9.08,3.48-10.38,8.46-1.34,5.14-1.38,10.51-.16,15.68Z"/>
  <path class="cls-1" d="M57.93,5.32h8.96c.16,0,.4.46.3.58-.6.73-3.09.23-3.5,2.81-.12.74-.25,1.58-.26,2.37v15.04c-.02,5.7-1.07,11.58-7.2,13.42-2.66.8-5.34.7-8.09.22-4.1-.72-7.28-3.8-7.96-7.96-.31-1.9-.45-3.77-.45-5.73l-.04-17.25c0-.74-.33-1.73-.92-2.07-1.68-.97-3.39,0-2.56-1.5,4.42.15,9.34.15,13.77,0,.23,0,.4.53.3.67-.4.59-2.19.02-3.21,1.08-.47.49-.71,1.47-.71,2.23l.02,20.21c0,1.84.34,3.61.92,5.27.72,2.06,2.44,3.38,4.59,3.64,3.88.47,7.5-.59,9.11-4.47.89-2.16,1.31-4.51,1.31-6.92l.02-15.6c0-1.18-.2-2.45-.69-3.45-.57-1.17-1.84-1.43-3.02-1.64l-.75-.13c-.2-.04-.17-.84.04-.84Z"/>
  <path class="cls-1" d="M93.68,28.43c.03-.32,1.03-.35,1.02-.09-.09,3.72-.03,7.26.22,11.07l-25.88.02c-.26,0-.4-.5-.32-.62.42-.65,1.96-.2,2.88-.95.63-.51.85-1.64.85-2.52V9.41c0-.83-.15-1.82-.65-2.39-.87-.98-3.02-.65-3.02-1v-.62c0-.15.46-.12.65-.12,4.56.14,8.95.12,13.51-.02v.88c-1.01.13-1.95.14-2.81.62-.68.38-1.03,1.45-1.03,2.31v26.92c0,1.41.86,2.33,2.18,2.34l3.96.04c5.56.06,7.77-4.97,8.43-9.94Z"/>
</svg>