<svg viewBox="0 0 200 55" fill="none" xmlns="http://www.w3.org/2000/svg">
  <!-- Hexagon shape -->
  <path d="M30 5 L50 5 L60 27.5 L50 50 L30 50 L20 27.5 Z" fill="none" stroke="#FDFBF7" stroke-width="1.5"/>
  <!-- Molecule dots -->
  <circle cx="35" cy="20" r="2" fill="#B7E4C7"/>
  <circle cx="45" cy="20" r="2" fill="#B7E4C7"/>
  <circle cx="40" cy="28" r="2" fill="#B7E4C7"/>
  <circle cx="35" cy="36" r="2" fill="#B7E4C7"/>
  <circle cx="45" cy="36" r="2" fill="#B7E4C7"/>
  <line x1="35" y1="20" x2="45" y2="20" stroke="#B7E4C7" stroke-width="1"/>
  <line x1="35" y1="20" x2="40" y2="28" stroke="#B7E4C7" stroke-width="1"/>
  <line x1="45" y1="20" x2="40" y2="28" stroke="#B7E4C7" stroke-width="1"/>
  <line x1="40" y1="28" x2="35" y2="36" stroke="#B7E4C7" stroke-width="1"/>
  <line x1="40" y1="28" x2="45" y2="36" stroke="#B7E4C7" stroke-width="1"/>
  <!-- Text -->
  <text x="68" y="24" font-family="'Arial', 'Helvetica Neue', sans-serif" font-weight="300" font-size="16" fill="#FDFBF7">LegitScript</text>
  <text x="68" y="42" font-family="'Arial', 'Helvetica Neue', sans-serif" font-weight="600" font-size="13" fill="#FDFBF7">Certified</text>
  <!-- Green checkmark circle -->
  <circle cx="148" cy="38" r="7" fill="#B7E4C7"/>
  <path d="M144 38 L147 41 L153 35" stroke="#2A4542" stroke-width="1.8" stroke-linecap="round" stroke-linejoin="round" fill="none"/>
</svg>